STARTFONT 2.1
COMMENT "$NCDId: @(#)9x15B.bdf,v 14.10 1991/06/26 12:27:08 jim Exp $"
COMMENT ""
COMMENT "Designed and made by"
COMMENT "Thomas Bagli (pyramid!pcsbst!tom@uunet.UU.NET)"
COMMENT "PCS Computer Systeme, West Germany"
COMMENT ""
COMMENT "and various folks at Network Computing Devices and the X Consortium"
COMMENT ""
FONT -Misc-Fixed-Bold-R-Normal--15-140-75-75-C-90-iso10646-0400
SIZE 11 75 75
FONTBOUNDINGBOX 9 15 0 -3
STARTPROPERTIES 23
FONTNAME_REGISTRY ""
FOUNDRY "Misc"
FAMILY_NAME "Fixed"
WEIGHT_NAME "Bold"
SLANT "R"
SETWIDTH_NAME "Normal"
ADD_STYLE_NAME ""
PIXEL_SIZE 15
POINT_SIZE 140
RESOLUTION_X 75
RESOLUTION_Y 75
SPACING "C"
AVERAGE_WIDTH 90
CHARSET_REGISTRY "iso10646"
CHARSET_ENCODING "0400"
DEFAULT_CHAR 0
FONT_DESCENT 3
FONT_ASCENT 12
COPYRIGHT "Public domain font.  Share and enjoy."
COPYRIGHT2 "Cyrillic and special glyphs copyright 2000 Dmitry Yu. Bolkhovityanov, bolkhov@inp.nsk.su"
SOURCEDATE "Wed Aug  9 20:29:21 2000"
PKGVERSION "1.1"
ASSEMBLER "cvtbdf.pl (Linux)"
ENDPROPERTIES
CHARS 340
STARTCHAR null
ENCODING 0
SWIDTH 1 0
DWIDTH 9 0
BBX 9 15 0 -3
BITMAP
0000
0000
7F00
7F00
7F00
7F00
7F00
7F00
7F00
7F00
7F00
7F00
0000
0000
0000
ENDCHAR
STARTCHAR ctrlA
ENCODING 1
SWIDTH 1 0
DWIDTH 9 0
BBX 9 15 0 -3
BITMAP
0000
0000
0000
0000
0000
0C00
1E00
3F00
7F80
3F00
1E00
0C00
0000
0000
0000
ENDCHAR
STARTCHAR ctrlB
ENCODING 2
SWIDTH 1 0
DWIDTH 9 0
BBX 9 15 0 -3
BITMAP
0000
5500
2A80
5500
2A80
5500
2A80
5500
2A80
5500
2A80
5500
2A80
5500
2A80
ENDCHAR
STARTCHAR ctrlC
ENCODING 3
SWIDTH 1 0
DWIDTH 9 0
BBX 9 15 0 -3
BITMAP
0000
0000
0000
6600
6600
7E00
6600
6600
0000
1F80
0600
0600
0600
0600
0000
ENDCHAR
STARTCHAR ctrlD
ENCODING 4
SWIDTH 1 0
DWIDTH 9 0
BBX 9 15 0 -3
BITMAP
0000
0000
0000
7C00
6000
7800
6000
6000
0000
0F80
0C00
0F00
0C00
0C00
0000
ENDCHAR
STARTCHAR ctrlE
ENCODING 5
SWIDTH 1 0
DWIDTH 9 0
BBX 9 15 0 -3
BITMAP
0000
0000
0000
3E00
6200
6000
6200
3E00
0000
1F00
1980
1F00
1980
1980
0000
ENDCHAR
STARTCHAR ctrlF
ENCODING 6
SWIDTH 1 0
DWIDTH 9 0
BBX 9 15 0 -3
BITMAP
0000
0000
0000
6000
6000
6000
6000
7C00
0000
0F80
0C00
0F00
0C00
0C00
0000
ENDCHAR
STARTCHAR ctrlG
ENCODING 7
SWIDTH 1 0
DWIDTH 9 0
BBX 9 15 0 -3
BITMAP
0000
0000
1E00
3300
3300
1E00
0000
0000
0000
0000
0000
0000
0000
0000
0000
ENDCHAR
STARTCHAR ctrlH
ENCODING 8
SWIDTH 1 0
DWIDTH 9 0
BBX 9 15 0 -3
BITMAP
0000
0000
0C00
0C00
0C00
7F80
7F80
0C00
0C00
0C00
0000
7F80
7F80
0000
0000
ENDCHAR
STARTCHAR ctrlI
ENCODING 9
SWIDTH 1 0
DWIDTH 9 0
BBX 9 15 0 -3
BITMAP
0000
0000
0000
6600
7600
7E00
6E00
6600
0000
0C00
0C00
0C00
0C00
0F80
0000
ENDCHAR
STARTCHAR ctrlJ
ENCODING 10
SWIDTH 1 0
DWIDTH 9 0
BBX 9 15 0 -3
BITMAP
0000
0000
0000
6600
6600
6600
3C00
1800
0000
1F80
0600
0600
0600
0600
0000
ENDCHAR
STARTCHAR ldcornsqlr
ENCODING 11
SWIDTH 1 0
DWIDTH 9 0
BBX 9 15 0 -3
BITMAP
0C00
0C00
0C00
0C00
0C00
0C00
0C00
FC00
FC00
0000
0000
0000
0000
0000
0000
ENDCHAR
STARTCHAR ldcornsqur
ENCODING 12
SWIDTH 1 0
DWIDTH 9 0
BBX 9 15 0 -3
BITMAP
0000
0000
0000
0000
0000
0000
0000
FC00
FC00
0C00
0C00
0C00
0C00
0C00
0C00
ENDCHAR
STARTCHAR ldcornsqul
ENCODING 13
SWIDTH 1 0
DWIDTH 9 0
BBX 9 15 0 -3
BITMAP
0000
0000
0000
0000
0000
0000
0000
0F80
0F80
0C00
0C00
0C00
0C00
0C00
0C00
ENDCHAR
STARTCHAR ldcornsqll
ENCODING 14
SWIDTH 1 0
DWIDTH 9 0
BBX 9 15 0 -3
BITMAP
0C00
0C00
0C00
0C00
0C00
0C00
0C00
0F80
0F80
0000
0000
0000
0000
0000
0000
ENDCHAR
STARTCHAR ldcross
ENCODING 15
SWIDTH 1 0
DWIDTH 9 0
BBX 9 15 0 -3
BITMAP
0C00
0C00
0C00
0C00
0C00
0C00
0C00
FF80
FF80
0C00
0C00
0C00
0C00
0C00
0C00
ENDCHAR
STARTCHAR ctrlP
ENCODING 16
SWIDTH 1 0
DWIDTH 9 0
BBX 9 15 0 -3
BITMAP
0000
0000
0000
FF80
FF80
0000
0000
0000
0000
0000
0000
0000
0000
0000
0000
ENDCHAR
STARTCHAR ctrlQ
ENCODING 17
SWIDTH 1 0
DWIDTH 9 0
BBX 9 15 0 -3
BITMAP
0000
0000
0000
0000
0000
FF80
FF80
0000
0000
0000
0000
0000
0000
0000
0000
ENDCHAR
STARTCHAR ldhorizontal
ENCODING 18
SWIDTH 1 0
DWIDTH 9 0
BBX 9 15 0 -3
BITMAP
0000
0000
0000
0000
0000
0000
0000
FF80
FF80
0000
0000
0000
0000
0000
0000
ENDCHAR
STARTCHAR ctrlS
ENCODING 19
SWIDTH 1 0
DWIDTH 9 0
BBX 9 15 0 -3
BITMAP
0000
0000
0000
0000
0000
0000
0000
0000
0000
FF80
FF80
0000
0000
0000
0000
ENDCHAR
STARTCHAR ctrlT
ENCODING 20
SWIDTH 1 0
DWIDTH 9 0
BBX 9 15 0 -3
BITMAP
0000
0000
0000
0000
0000
0000
0000
0000
0000
0000
0000
FF80
FF80
0000
0000
ENDCHAR
STARTCHAR ldteelft
ENCODING 21
SWIDTH 1 0
DWIDTH 9 0
BBX 9 15 0 -3
BITMAP
0C00
0C00
0C00
0C00
0C00
0C00
0C00
0F80
0F80
0C00
0C00
0C00
0C00
0C00
0C00
ENDCHAR
STARTCHAR ldteert
ENCODING 22
SWIDTH 1 0
DWIDTH 9 0
BBX 9 15 0 -3
BITMAP
0C00
0C00
0C00
0C00
0C00
0C00
0C00
FC00
FC00
0C00
0C00
0C00
0C00
0C00
0C00
ENDCHAR
STARTCHAR ldteebt
ENCODING 23
SWIDTH 1 0
DWIDTH 9 0
BBX 9 15 0 -3
BITMAP
0C00
0C00
0C00
0C00
0C00
0C00
0C00
FF80
FF80
0000
0000
0000
0000
0000
0000
ENDCHAR
STARTCHAR ldteetp
ENCODING 24
SWIDTH 1 0
DWIDTH 9 0
BBX 9 15 0 -3
BITMAP
0000
0000
0000
0000
0000
0000
0000
FF80
FF80
0C00
0C00
0C00
0C00
0C00
0C00
ENDCHAR
STARTCHAR ldvertical
ENCODING 25
SWIDTH 1 0
DWIDTH 9 0
BBX 9 15 0 -3
BITMAP
0C00
0C00
0C00
0C00
0C00
0C00
0C00
0C00
0C00
0C00
0C00
0C00
0C00
0C00
0C00
ENDCHAR
STARTCHAR ctrlZ
ENCODING 26
SWIDTH 1 0
DWIDTH 9 0
BBX 9 15 0 -3
BITMAP
0000
0000
0000
0380
0E00
3800
6000
3800
0E00
0380
0000
7F80
7F80
0000
0000
ENDCHAR
STARTCHAR ctrlBRL
ENCODING 27
SWIDTH 1 0
DWIDTH 9 0
BBX 9 15 0 -3
BITMAP
0000
0000
0000
7000
1C00
0700
0180
0700
1C00
7000
0000
7F80
7F80
0000
0000
ENDCHAR
STARTCHAR ctrlBSLASH
ENCODING 28
SWIDTH 1 0
DWIDTH 9 0
BBX 9 15 0 -3
BITMAP
0000
0000
0000
0000
0000
7F80
7F80
1300
1300
1300
3300
7300
0000
0000
0000
ENDCHAR
STARTCHAR ctrlBRR
ENCODING 29
SWIDTH 1 0
DWIDTH 9 0
BBX 9 15 0 -3
BITMAP
0000
0000
0000
0180
0300
7F80
7F80
0C00
7F80
7F80
3000
6000
0000
0000
0000
ENDCHAR
STARTCHAR ctrlCARET
ENCODING 30
SWIDTH 1 0
DWIDTH 9 0
BBX 9 15 0 -3
BITMAP
0000
0000
0000
0F00
1980
1800
1800
3F00
1800
1800
7C00
5F80
7000
0000
0000
ENDCHAR
STARTCHAR ctrlUND
ENCODING 31
SWIDTH 1 0
DWIDTH 9 0
BBX 9 15 0 -3
BITMAP
0000
0000
0000
0000
0000
0000
0000
0C00
0C00
0000
0000
0000
0000
0000
0000
ENDCHAR
STARTCHAR space
ENCODING 32
SWIDTH 1 0
DWIDTH 9 0
BBX 9 15 0 -3
BITMAP
0000
0000
0000
0000
0000
0000
0000
0000
0000
0000
0000
0000
0000
0000
0000
ENDCHAR
STARTCHAR exclam
ENCODING 33
SWIDTH 1 0
DWIDTH 9 0
BBX 9 15 0 -3
BITMAP
0000
0000
0C00
0C00
0C00
0C00
0C00
0C00
0C00
0C00
0000
0C00
0000
0000
0000
ENDCHAR
STARTCHAR quotedbl
ENCODING 34
SWIDTH 1 0
DWIDTH 9 0
BBX 9 15 0 -3
BITMAP
0000
0000
1B00
1B00
1B00
0000
0000
0000
0000
0000
0000
0000
0000
0000
0000
ENDCHAR
STARTCHAR numbersign
ENCODING 35
SWIDTH 1 0
DWIDTH 9 0
BBX 9 15 0 -3
BITMAP
0000
0000
0000
3600
3600
7F00
3600
3600
7F00
3600
3600
0000
0000
0000
0000
ENDCHAR
STARTCHAR dollar
ENCODING 36
SWIDTH 1 0
DWIDTH 9 0
BBX 9 15 0 -3
BITMAP
0000
0000
0400
1F00
3580
3400
3C00
1F00
0780
0580
3580
1F00
0400
0000
0000
ENDCHAR
STARTCHAR percent
ENCODING 37
SWIDTH 1 0
DWIDTH 9 0
BBX 9 15 0 -3
BITMAP
0000
0000
2180
7300
7300
2600
0C00
0C00
1900
3380
3380
6100
0000
0000
0000
ENDCHAR
STARTCHAR ampersand
ENCODING 38
SWIDTH 1 0
DWIDTH 9 0
BBX 9 15 0 -3
BITMAP
0000
0000
1C00
3600
3600
3C00
1800
3C80
6780
6300
6700
3D80
0000
0000
0000
ENDCHAR
STARTCHAR quotesingle
ENCODING 39
SWIDTH 1 0
DWIDTH 9 0
BBX 9 15 0 -3
BITMAP
0000
0000
0C00
0C00
0C00
0000
0000
0000
0000
0000
0000
0000
0000
0000
0000
ENDCHAR
STARTCHAR parenleft
ENCODING 40
SWIDTH 1 0
DWIDTH 9 0
BBX 9 15 0 -3
BITMAP
0000
0600
0C00
1800
1800
3000
3000
3000
3000
1800
1800
0C00
0600
0000
0000
ENDCHAR
STARTCHAR parenright
ENCODING 41
SWIDTH 1 0
DWIDTH 9 0
BBX 9 15 0 -3
BITMAP
0000
3000
1800
0C00
0C00
0600
0600
0600
0600
0C00
0C00
1800
3000
0000
0000
ENDCHAR
STARTCHAR asterisk
ENCODING 42
SWIDTH 1 0
DWIDTH 9 0
BBX 9 15 0 -3
BITMAP
0000
0000
0000
0000
0000
3600
1C00
7F00
1C00
3600
0000
0000
0000
0000
0000
ENDCHAR
STARTCHAR plus
ENCODING 43
SWIDTH 1 0
DWIDTH 9 0
BBX 9 15 0 -3
BITMAP
0000
0000
0000
0000
0C00
0C00
0C00
7F80
0C00
0C00
0C00
0000
0000
0000
0000
ENDCHAR
STARTCHAR comma
ENCODING 44
SWIDTH 1 0
DWIDTH 9 0
BBX 9 15 0 -3
BITMAP
0000
0000
0000
0000
0000
0000
0000
0000
0000
0000
1E00
1C00
3000
0000
0000
ENDCHAR
STARTCHAR minus
ENCODING 45
SWIDTH 1 0
DWIDTH 9 0
BBX 9 15 0 -3
BITMAP
0000
0000
0000
0000
0000
0000
0000
7F80
0000
0000
0000
0000
0000
0000
0000
ENDCHAR
STARTCHAR period
ENCODING 46
SWIDTH 1 0
DWIDTH 9 0
BBX 9 15 0 -3
BITMAP
0000
0000
0000
0000
0000
0000
0000
0000
0000
0000
0C00
1E00
0C00
0000
0000
ENDCHAR
STARTCHAR slash
ENCODING 47
SWIDTH 1 0
DWIDTH 9 0
BBX 9 15 0 -3
BITMAP
0000
0000
0180
0300
0300
0600
0C00
0C00
1800
3000
3000
6000
0000
0000
0000
ENDCHAR
STARTCHAR zero
ENCODING 48
SWIDTH 1 0
DWIDTH 9 0
BBX 9 15 0 -3
BITMAP
0000
0000
0C00
1E00
3300
6180
6180
6180
6180
3300
1E00
0C00
0000
0000
0000
ENDCHAR
STARTCHAR one
ENCODING 49
SWIDTH 1 0
DWIDTH 9 0
BBX 9 15 0 -3
BITMAP
0000
0000
0C00
1C00
3C00
0C00
0C00
0C00
0C00
0C00
0C00
3F00
0000
0000
0000
ENDCHAR
STARTCHAR two
ENCODING 50
SWIDTH 1 0
DWIDTH 9 0
BBX 9 15 0 -3
BITMAP
0000
0000
1E00
3300
6180
0180
0300
0600
0C00
1800
3000
7F80
0000
0000
0000
ENDCHAR
STARTCHAR three
ENCODING 51
SWIDTH 1 0
DWIDTH 9 0
BBX 9 15 0 -3
BITMAP
0000
0000
3E00
6300
0180
0300
0E00
0300
0180
0180
6300
3E00
0000
0000
0000
ENDCHAR
STARTCHAR four
ENCODING 52
SWIDTH 1 0
DWIDTH 9 0
BBX 9 15 0 -3
BITMAP
0000
0000
0300
0700
0F00
1B00
3300
6300
7F80
0300
0300
0300
0000
0000
0000
ENDCHAR
STARTCHAR five
ENCODING 53
SWIDTH 1 0
DWIDTH 9 0
BBX 9 15 0 -3
BITMAP
0000
0000
7F00
6000
6000
6E00
7300
0180
0180
6180
3300
1E00
0000
0000
0000
ENDCHAR
STARTCHAR six
ENCODING 54
SWIDTH 1 0
DWIDTH 9 0
BBX 9 15 0 -3
BITMAP
0000
0000
1E00
3300
6100
6000
6E00
7300
6180
6180
3300
1E00
0000
0000
0000
ENDCHAR
STARTCHAR seven
ENCODING 55
SWIDTH 1 0
DWIDTH 9 0
BBX 9 15 0 -3
BITMAP
0000
0000
7F80
0180
0180
0300
0600
0C00
1800
3000
6000
6000
0000
0000
0000
ENDCHAR
STARTCHAR eight
ENCODING 56
SWIDTH 1 0
DWIDTH 9 0
BBX 9 15 0 -3
BITMAP
0000
0000
1E00
3300
6180
3300
1E00
3300
6180
6180
3300
1E00
0000
0000
0000
ENDCHAR
STARTCHAR nine
ENCODING 57
SWIDTH 1 0
DWIDTH 9 0
BBX 9 15 0 -3
BITMAP
0000
0000
1E00
3300
6180
6180
3380
1D80
0180
2180
3300
1E00
0000
0000
0000
ENDCHAR
STARTCHAR colon
ENCODING 58
SWIDTH 1 0
DWIDTH 9 0
BBX 9 15 0 -3
BITMAP
0000
0000
0000
0000
0000
0C00
1E00
0C00
0000
0000
0C00
1E00
0C00
0000
0000
ENDCHAR
STARTCHAR semicolon
ENCODING 59
SWIDTH 1 0
DWIDTH 9 0
BBX 9 15 0 -3
BITMAP
0000
0000
0000
0000
0000
0C00
1E00
0C00
0000
0000
1E00
1C00
3000
0000
0000
ENDCHAR
STARTCHAR less
ENCODING 60
SWIDTH 1 0
DWIDTH 9 0
BBX 9 15 0 -3
BITMAP
0000
0000
0300
0600
0C00
1800
3000
3000
1800
0C00
0600
0300
0000
0000
0000
ENDCHAR
STARTCHAR equal
ENCODING 61
SWIDTH 1 0
DWIDTH 9 0
BBX 9 15 0 -3
BITMAP
0000
0000
0000
0000
0000
0000
7F80
0000
0000
7F80
0000
0000
0000
0000
0000
ENDCHAR
STARTCHAR greater
ENCODING 62
SWIDTH 1 0
DWIDTH 9 0
BBX 9 15 0 -3
BITMAP
0000
0000
6000
3000
1800
0C00
0600
0600
0C00
1800
3000
6000
0000
0000
0000
ENDCHAR
STARTCHAR question
ENCODING 63
SWIDTH 1 0
DWIDTH 9 0
BBX 9 15 0 -3
BITMAP
0000
0000
1F00
3180
3180
0180
0300
0600
0C00
0000
0C00
0C00
0000
0000
0000
ENDCHAR
STARTCHAR at
ENCODING 64
SWIDTH 1 0
DWIDTH 9 0
BBX 9 15 0 -3
BITMAP
0000
0000
1E00
3300
6180
6780
6D80
6D80
6700
6000
3180
1F00
0000
0000
0000
ENDCHAR
STARTCHAR A
ENCODING 65
SWIDTH 1 0
DWIDTH 9 0
BBX 9 15 0 -3
BITMAP
0000
0000
0C00
1E00
3300
6180
6180
6180
7F80
6180
6180
6180
0000
0000
0000
ENDCHAR
STARTCHAR B
ENCODING 66
SWIDTH 1 0
DWIDTH 9 0
BBX 9 15 0 -3
BITMAP
0000
0000
7E00
6300
6180
6300
7E00
6300
6180
6180
6300
7E00
0000
0000
0000
ENDCHAR
STARTCHAR C
ENCODING 67
SWIDTH 1 0
DWIDTH 9 0
BBX 9 15 0 -3
BITMAP
0000
0000
1F00
3180
6080
6000
6000
6000
6000
6080
3180
1F00
0000
0000
0000
ENDCHAR
STARTCHAR D
ENCODING 68
SWIDTH 1 0
DWIDTH 9 0
BBX 9 15 0 -3
BITMAP
0000
0000
7E00
6300
6180
6180
6180
6180
6180
6180
6300
7E00
0000
0000
0000
ENDCHAR
STARTCHAR E
ENCODING 69
SWIDTH 1 0
DWIDTH 9 0
BBX 9 15 0 -3
BITMAP
0000
0000
7F00
6000
6000
6000
7E00
6000
6000
6000
6000
7F00
0000
0000
0000
ENDCHAR
STARTCHAR F
ENCODING 70
SWIDTH 1 0
DWIDTH 9 0
BBX 9 15 0 -3
BITMAP
0000
0000
7F80
6000
6000
6000
7E00
6000
6000
6000
6000
6000
0000
0000
0000
ENDCHAR
STARTCHAR G
ENCODING 71
SWIDTH 1 0
DWIDTH 9 0
BBX 9 15 0 -3
BITMAP
0000
0000
1F00
3180
6000
6000
6000
6380
6180
6180
3180
1F00
0000
0000
0000
ENDCHAR
STARTCHAR H
ENCODING 72
SWIDTH 1 0
DWIDTH 9 0
BBX 9 15 0 -3
BITMAP
0000
0000
6180
6180
6180
6180
7F80
6180
6180
6180
6180
6180
0000
0000
0000
ENDCHAR
STARTCHAR I
ENCODING 73
SWIDTH 1 0
DWIDTH 9 0
BBX 9 15 0 -3
BITMAP
0000
0000
3F00
0C00
0C00
0C00
0C00
0C00
0C00
0C00
0C00
3F00
0000
0000
0000
ENDCHAR
STARTCHAR J
ENCODING 74
SWIDTH 1 0
DWIDTH 9 0
BBX 9 15 0 -3
BITMAP
0000
0000
0F00
0300
0300
0300
0300
0300
0300
2300
3600
1C00
0000
0000
0000
ENDCHAR
STARTCHAR K
ENCODING 75
SWIDTH 1 0
DWIDTH 9 0
BBX 9 15 0 -3
BITMAP
0000
0000
6180
6300
6600
6C00
7800
7800
6C00
6600
6300
6180
0000
0000
0000
ENDCHAR
STARTCHAR L
ENCODING 76
SWIDTH 1 0
DWIDTH 9 0
BBX 9 15 0 -3
BITMAP
0000
0000
6000
6000
6000
6000
6000
6000
6000
6000
6000
7F00
0000
0000
0000
ENDCHAR
STARTCHAR M
ENCODING 77
SWIDTH 1 0
DWIDTH 9 0
BBX 9 15 0 -3
BITMAP
0000
0000
6180
7380
7F80
6D80
6D80
6D80
6180
6180
6180
6180
0000
0000
0000
ENDCHAR
STARTCHAR N
ENCODING 78
SWIDTH 1 0
DWIDTH 9 0
BBX 9 15 0 -3
BITMAP
0000
0000
6180
7180
7980
7980
6D80
6D80
6780
6380
6380
6180
0000
0000
0000
ENDCHAR
STARTCHAR O
ENCODING 79
SWIDTH 1 0
DWIDTH 9 0
BBX 9 15 0 -3
BITMAP
0000
0000
1E00
3300
6180
6180
6180
6180
6180
6180
3300
1E00
0000
0000
0000
ENDCHAR
STARTCHAR P
ENCODING 80
SWIDTH 1 0
DWIDTH 9 0
BBX 9 15 0 -3
BITMAP
0000
0000
7F00
6180
6180
6180
7F00
6000
6000
6000
6000
6000
0000
0000
0000
ENDCHAR
STARTCHAR Q
ENCODING 81
SWIDTH 1 0
DWIDTH 9 0
BBX 9 15 0 -3
BITMAP
0000
0000
1E00
3300
6180
6180
6180
6180
6D80
6780
3300
1E80
0000
0000
0000
ENDCHAR
STARTCHAR R
ENCODING 82
SWIDTH 1 0
DWIDTH 9 0
BBX 9 15 0 -3
BITMAP
0000
0000
7F00
6180
6180
6180
7F00
7C00
6600
6300
6180
6180
0000
0000
0000
ENDCHAR
STARTCHAR S
ENCODING 83
SWIDTH 1 0
DWIDTH 9 0
BBX 9 15 0 -3
BITMAP
0000
0000
3F00
6180
6000
6000
3F00
0180
0180
0180
6180
3F00
0000
0000
0000
ENDCHAR
STARTCHAR T
ENCODING 84
SWIDTH 1 0
DWIDTH 9 0
BBX 9 15 0 -3
BITMAP
0000
0000
7F80
0C00
0C00
0C00
0C00
0C00
0C00
0C00
0C00
0C00
0000
0000
0000
ENDCHAR
STARTCHAR U
ENCODING 85
SWIDTH 1 0
DWIDTH 9 0
BBX 9 15 0 -3
BITMAP
0000
0000
6180
6180
6180
6180
6180
6180
6180
6180
3300
1E00
0000
0000
0000
ENDCHAR
STARTCHAR V
ENCODING 86
SWIDTH 1 0
DWIDTH 9 0
BBX 9 15 0 -3
BITMAP
0000
0000
6180
6180
6180
3300
3300
3300
1E00
1E00
0C00
0C00
0000
0000
0000
ENDCHAR
STARTCHAR W
ENCODING 87
SWIDTH 1 0
DWIDTH 9 0
BBX 9 15 0 -3
BITMAP
0000
0000
6180
6180
6180
6180
6D80
6D80
6D80
7F80
7380
6180
0000
0000
0000
ENDCHAR
STARTCHAR X
ENCODING 88
SWIDTH 1 0
DWIDTH 9 0
BBX 9 15 0 -3
BITMAP
0000
0000
6180
6180
3300
1E00
0C00
0C00
1E00
3300
6180
6180
0000
0000
0000
ENDCHAR
STARTCHAR Y
ENCODING 89
SWIDTH 1 0
DWIDTH 9 0
BBX 9 15 0 -3
BITMAP
0000
0000
6180
6180
3300
1E00
0C00
0C00
0C00
0C00
0C00
0C00
0000
0000
0000
ENDCHAR
STARTCHAR Z
ENCODING 90
SWIDTH 1 0
DWIDTH 9 0
BBX 9 15 0 -3
BITMAP
0000
0000
7F00
0300
0300
0600
0C00
1800
3000
6000
6000
7F00
0000
0000
0000
ENDCHAR
STARTCHAR bracketleft
ENCODING 91
SWIDTH 1 0
DWIDTH 9 0
BBX 9 15 0 -3
BITMAP
0000
0000
3E00
3000
3000
3000
3000
3000
3000
3000
3000
3E00
0000
0000
0000
ENDCHAR
STARTCHAR backslash
ENCODING 92
SWIDTH 1 0
DWIDTH 9 0
BBX 9 15 0 -3
BITMAP
0000
0000
6000
3000
3000
1800
0C00
0C00
0600
0300
0300
0180
0000
0000
0000
ENDCHAR
STARTCHAR bracketright
ENCODING 93
SWIDTH 1 0
DWIDTH 9 0
BBX 9 15 0 -3
BITMAP
0000
0000
3E00
0600
0600
0600
0600
0600
0600
0600
0600
3E00
0000
0000
0000
ENDCHAR
STARTCHAR asciicircum
ENCODING 94
SWIDTH 1 0
DWIDTH 9 0
BBX 9 15 0 -3
BITMAP
0000
0000
0C00
1E00
3300
2100
0000
0000
0000
0000
0000
0000
0000
0000
0000
ENDCHAR
STARTCHAR underscore
ENCODING 95
SWIDTH 1 0
DWIDTH 9 0
BBX 9 15 0 -3
BITMAP
0000
0000
0000
0000
0000
0000
0000
0000
0000
0000
0000
0000
7F80
0000
0000
ENDCHAR
STARTCHAR grave
ENCODING 96
SWIDTH 1 0
DWIDTH 9 0
BBX 9 15 0 -3
BITMAP
0000
1800
0C00
0000
0000
0000
0000
0000
0000
0000
0000
0000
0000
0000
0000
ENDCHAR
STARTCHAR a
ENCODING 97
SWIDTH 1 0
DWIDTH 9 0
BBX 9 15 0 -3
BITMAP
0000
0000
0000
0000
0000
1F00
3180
0180
3F80
6180
6380
3D80
0000
0000
0000
ENDCHAR
STARTCHAR b
ENCODING 98
SWIDTH 1 0
DWIDTH 9 0
BBX 9 15 0 -3
BITMAP
0000
0000
6000
6000
6000
6E00
7300
6180
6180
6180
7300
6E00
0000
0000
0000
ENDCHAR
STARTCHAR c
ENCODING 99
SWIDTH 1 0
DWIDTH 9 0
BBX 9 15 0 -3
BITMAP
0000
0000
0000
0000
0000
1F00
3180
6000
6000
6000
3180
1F00
0000
0000
0000
ENDCHAR
STARTCHAR d
ENCODING 100
SWIDTH 1 0
DWIDTH 9 0
BBX 9 15 0 -3
BITMAP
0000
0000
0180
0180
0180
1D80
3380
6180
6180
6180
3380
1D80
0000
0000
0000
ENDCHAR
STARTCHAR e
ENCODING 101
SWIDTH 1 0
DWIDTH 9 0
BBX 9 15 0 -3
BITMAP
0000
0000
0000
0000
0000
1E00
3300
6180
7F80
6000
3180
1F00
0000
0000
0000
ENDCHAR
STARTCHAR f
ENCODING 102
SWIDTH 1 0
DWIDTH 9 0
BBX 9 15 0 -3
BITMAP
0000
0000
0F00
1980
1980
1800
1800
7E00
1800
1800
1800
1800
0000
0000
0000
ENDCHAR
STARTCHAR g
ENCODING 103
SWIDTH 1 0
DWIDTH 9 0
BBX 9 15 0 -3
BITMAP
0000
0000
0000
0000
0000
3E80
6380
6300
6300
3E00
6000
3F00
6180
6180
3F00
ENDCHAR
STARTCHAR h
ENCODING 104
SWIDTH 1 0
DWIDTH 9 0
BBX 9 15 0 -3
BITMAP
0000
0000
6000
6000
6000
6E00
7300
6180
6180
6180
6180
6180
0000
0000
0000
ENDCHAR
STARTCHAR i
ENCODING 105
SWIDTH 1 0
DWIDTH 9 0
BBX 9 15 0 -3
BITMAP
0000
0000
0C00
0C00
0000
1C00
0C00
0C00
0C00
0C00
0C00
3F00
0000
0000
0000
ENDCHAR
STARTCHAR j
ENCODING 106
SWIDTH 1 0
DWIDTH 9 0
BBX 9 15 0 -3
BITMAP
0000
0000
0300
0300
0000
0F00
0300
0300
0300
0300
0300
6300
6300
6300
3E00
ENDCHAR
STARTCHAR k
ENCODING 107
SWIDTH 1 0
DWIDTH 9 0
BBX 9 15 0 -3
BITMAP
0000
0000
3000
3000
3000
3300
3600
3C00
3C00
3600
3300
3180
0000
0000
0000
ENDCHAR
STARTCHAR l
ENCODING 108
SWIDTH 1 0
DWIDTH 9 0
BBX 9 15 0 -3
BITMAP
0000
0000
1C00
0C00
0C00
0C00
0C00
0C00
0C00
0C00
0C00
3F00
0000
0000
0000
ENDCHAR
STARTCHAR m
ENCODING 109
SWIDTH 1 0
DWIDTH 9 0
BBX 9 15 0 -3
BITMAP
0000
0000
0000
0000
0000
5B00
6D80
6D80
6D80
6D80
6D80
6D80
0000
0000
0000
ENDCHAR
STARTCHAR n
ENCODING 110
SWIDTH 1 0
DWIDTH 9 0
BBX 9 15 0 -3
BITMAP
0000
0000
0000
0000
0000
6E00
7300
6180
6180
6180
6180
6180
0000
0000
0000
ENDCHAR
STARTCHAR o
ENCODING 111
SWIDTH 1 0
DWIDTH 9 0
BBX 9 15 0 -3
BITMAP
0000
0000
0000
0000
0000
1E00
3300
6180
6180
6180
3300
1E00
0000
0000
0000
ENDCHAR
STARTCHAR p
ENCODING 112
SWIDTH 1 0
DWIDTH 9 0
BBX 9 15 0 -3
BITMAP
0000
0000
0000
0000
0000
6E00
7300
6180
6180
6180
7300
6E00
6000
6000
6000
ENDCHAR
STARTCHAR q
ENCODING 113
SWIDTH 1 0
DWIDTH 9 0
BBX 9 15 0 -3
BITMAP
0000
0000
0000
0000
0000
1D80
3380
6180
6180
6180
3380
1D80
0180
0180
0180
ENDCHAR
STARTCHAR r
ENCODING 114
SWIDTH 1 0
DWIDTH 9 0
BBX 9 15 0 -3
BITMAP
0000
0000
0000
0000
0000
6F00
3980
3000
3000
3000
3000
3000
0000
0000
0000
ENDCHAR
STARTCHAR s
ENCODING 115
SWIDTH 1 0
DWIDTH 9 0
BBX 9 15 0 -3
BITMAP
0000
0000
0000
0000
0000
3F00
6180
6000
3F00
0180
6180
3F00
0000
0000
0000
ENDCHAR
STARTCHAR t
ENCODING 116
SWIDTH 1 0
DWIDTH 9 0
BBX 9 15 0 -3
BITMAP
0000
0000
0000
1800
1800
7E00
1800
1800
1800
1800
1980
0F00
0000
0000
0000
ENDCHAR
STARTCHAR u
ENCODING 117
SWIDTH 1 0
DWIDTH 9 0
BBX 9 15 0 -3
BITMAP
0000
0000
0000
0000
0000
6180
6180
6180
6180
6180
3380
1D80
0000
0000
0000
ENDCHAR
STARTCHAR v
ENCODING 118
SWIDTH 1 0
DWIDTH 9 0
BBX 9 15 0 -3
BITMAP
0000
0000
0000
0000
0000
6180
6180
3300
3300
1E00
1E00
0C00
0000
0000
0000
ENDCHAR
STARTCHAR w
ENCODING 119
SWIDTH 1 0
DWIDTH 9 0
BBX 9 15 0 -3
BITMAP
0000
0000
0000
0000
0000
6180
6180
6D80
6D80
6D80
7F80
3300
0000
0000
0000
ENDCHAR
STARTCHAR x
ENCODING 120
SWIDTH 1 0
DWIDTH 9 0
BBX 9 15 0 -3
BITMAP
0000
0000
0000
0000
0000
6180
3300
1E00
0C00
1E00
3300
6180
0000
0000
0000
ENDCHAR
STARTCHAR y
ENCODING 121
SWIDTH 1 0
DWIDTH 9 0
BBX 9 15 0 -3
BITMAP
0000
0000
0000
0000
0000
6180
6180
6180
6180
6180
3380
1D80
0180
6300
3E00
ENDCHAR
STARTCHAR z
ENCODING 122
SWIDTH 1 0
DWIDTH 9 0
BBX 9 15 0 -3
BITMAP
0000
0000
0000
0000
0000
3F00
0300
0600
0C00
1800
3000
3F00
0000
0000
0000
ENDCHAR
STARTCHAR braceleft
ENCODING 123
SWIDTH 1 0
DWIDTH 9 0
BBX 9 15 0 -3
BITMAP
0000
0000
0E00
1800
1800
1800
3000
3000
1800
1800
1800
0E00
0000
0000
0000
ENDCHAR
STARTCHAR bar
ENCODING 124
SWIDTH 1 0
DWIDTH 9 0
BBX 9 15 0 -3
BITMAP
0000
0000
0C00
0C00
0C00
0C00
0C00
0C00
0C00
0C00
0C00
0C00
0000
0000
0000
ENDCHAR
STARTCHAR braceright
ENCODING 125
SWIDTH 1 0
DWIDTH 9 0
BBX 9 15 0 -3
BITMAP
0000
0000
3800
0C00
0C00
0C00
0600
0600
0C00
0C00
0C00
3800
0000
0000
0000
ENDCHAR
STARTCHAR asciitilde
ENCODING 126
SWIDTH 1 0
DWIDTH 9 0
BBX 9 15 0 -3
BITMAP
0000
0000
3980
6D80
6700
0000
0000
0000
0000
0000
0000
0000
0000
0000
0000
ENDCHAR
STARTCHAR delete
ENCODING 127
SWIDTH 1 0
DWIDTH 9 0
BBX 9 15 0 -3
BITMAP
0000
0000
0000
0000
0000
0000
0000
0000
0000
0000
0000
0000
0000
0000
0000
ENDCHAR
STARTCHAR space
ENCODING 160
SWIDTH 1 0
DWIDTH 9 0
BBX 9 15 0 -3
BITMAP
0000
0000
0000
0000
0000
0000
0000
0000
0000
0000
0000
0000
0000
0000
0000
ENDCHAR
STARTCHAR exclamdown
ENCODING 161
SWIDTH 1 0
DWIDTH 9 0
BBX 9 15 0 -3
BITMAP
0000
0000
0600
0000
0600
0600
0600
0600
0600
0600
0600
0600
0000
0000
0000
ENDCHAR
STARTCHAR cent
ENCODING 162
SWIDTH 1 0
DWIDTH 9 0
BBX 9 15 0 -3
BITMAP
0000
0000
0000
0000
0200
3E00
6700
6800
6800
7300
3E00
2000
0000
0000
0000
ENDCHAR
STARTCHAR sterling
ENCODING 163
SWIDTH 1 0
DWIDTH 9 0
BBX 9 15 0 -3
BITMAP
0000
0000
0000
0F00
1980
1800
1800
3E00
1800
1800
7C00
5F80
7000
0000
0000
ENDCHAR
STARTCHAR currency
ENCODING 164
SWIDTH 1 0
DWIDTH 9 0
BBX 9 15 0 -3
BITMAP
0000
0000
0000
3180
3F80
1B00
1100
1B00
3F80
3180
0000
0000
0000
0000
0000
ENDCHAR
STARTCHAR yen
ENCODING 165
SWIDTH 1 0
DWIDTH 9 0
BBX 9 15 0 -3
BITMAP
0000
0000
6180
6180
3300
1E00
3F00
0C00
3F00
0C00
0C00
0C00
0000
0000
0000
ENDCHAR
STARTCHAR brokenbar
ENCODING 166
SWIDTH 1 0
DWIDTH 9 0
BBX 9 15 0 -3
BITMAP
0000
0000
0600
0600
0600
0600
0600
0000
0000
0600
0600
0600
0600
0000
0000
ENDCHAR
STARTCHAR section
ENCODING 167
SWIDTH 1 0
DWIDTH 9 0
BBX 9 15 0 -3
BITMAP
0000
0000
1E00
3300
3000
1E00
3300
3300
3300
1E00
0300
3300
1E00
0000
0000
ENDCHAR
STARTCHAR dieresis
ENCODING 168
SWIDTH 1 0
DWIDTH 9 0
BBX 9 15 0 -3
BITMAP
0000
3300
3300
0000
0000
0000
0000
0000
0000
0000
0000
0000
0000
0000
0000
ENDCHAR
STARTCHAR copyright
ENCODING 169
SWIDTH 1 0
DWIDTH 9 0
BBX 9 15 0 -3
BITMAP
0000
1E00
3F00
6180
5E80
5280
5080
5280
5E80
6180
3F00
1E00
0000
0000
0000
ENDCHAR
STARTCHAR ordfeminine
ENCODING 170
SWIDTH 1 0
DWIDTH 9 0
BBX 9 15 0 -3
BITMAP
0000
0000
1E00
0300
1F00
1300
1F00
0000
1F00
0000
0000
0000
0000
0000
0000
ENDCHAR
STARTCHAR guillemotleft
ENCODING 171
SWIDTH 1 0
DWIDTH 9 0
BBX 9 15 0 -3
BITMAP
0000
0000
0000
0D80
1B00
3600
6C00
6C00
3600
1B00
0D80
0000
0000
0000
0000
ENDCHAR
STARTCHAR logicalnot
ENCODING 172
SWIDTH 1 0
DWIDTH 9 0
BBX 9 15 0 -3
BITMAP
0000
0000
0000
0000
0000
7F00
7F00
0300
0300
0300
0000
0000
0000
0000
0000
ENDCHAR
STARTCHAR hyphen
ENCODING 173
SWIDTH 1 0
DWIDTH 9 0
BBX 9 15 0 -3
BITMAP
0000
0000
0000
0000
0000
0000
3F00
3F00
0000
0000
0000
0000
0000
0000
0000
ENDCHAR
STARTCHAR registered
ENCODING 174
SWIDTH 1 0
DWIDTH 9 0
BBX 9 15 0 -3
BITMAP
0000
1E00
3F00
6180
5E80
5280
5E80
5480
5680
6180
3F00
1E00
0000
0000
0000
ENDCHAR
STARTCHAR macron
ENCODING 175
SWIDTH 1 0
DWIDTH 9 0
BBX 9 15 0 -3
BITMAP
0000
3F00
3F00
0000
0000
0000
0000
0000
0000
0000
0000
0000
0000
0000
0000
ENDCHAR
STARTCHAR degree
ENCODING 176
SWIDTH 1 0
DWIDTH 9 0
BBX 9 15 0 -3
BITMAP
0000
0000
0F00
1980
1980
0F00
0000
0000
0000
0000
0000
0000
0000
0000
0000
ENDCHAR
STARTCHAR plusminus
ENCODING 177
SWIDTH 1 0
DWIDTH 9 0
BBX 9 15 0 -3
BITMAP
0000
0000
0C00
0C00
0C00
7F80
7F80
0C00
0C00
0C00
7F80
7F80
0000
0000
0000
ENDCHAR
STARTCHAR twosuperior
ENCODING 178
SWIDTH 1 0
DWIDTH 9 0
BBX 9 15 0 -3
BITMAP
0000
3800
4C00
0C00
1800
3000
6000
7C00
0000
0000
0000
0000
0000
0000
0000
ENDCHAR
STARTCHAR threesuperior
ENCODING 179
SWIDTH 1 0
DWIDTH 9 0
BBX 9 15 0 -3
BITMAP
0000
3800
4C00
0C00
1800
0C00
4C00
3800
0000
0000
0000
0000
0000
0000
0000
ENDCHAR
STARTCHAR acute
ENCODING 180
SWIDTH 1 0
DWIDTH 9 0
BBX 9 15 0 -3
BITMAP
0000
0600
0C00
0000
0000
0000
0000
0000
0000
0000
0000
0000
0000
0000
0000
ENDCHAR
STARTCHAR mu
ENCODING 181
SWIDTH 1 0
DWIDTH 9 0
BBX 9 15 0 -3
BITMAP
0000
0000
0000
0000
0000
6300
6300
6300
6300
6300
7700
7D00
6000
6000
6000
ENDCHAR
STARTCHAR paragraph
ENCODING 182
SWIDTH 1 0
DWIDTH 9 0
BBX 9 15 0 -3
BITMAP
0000
0000
3F00
7F00
7B00
7B00
7B00
3B00
1B00
1B00
1B00
1B00
0000
0000
0000
ENDCHAR
STARTCHAR periodcentered
ENCODING 183
SWIDTH 1 0
DWIDTH 9 0
BBX 9 15 0 -3
BITMAP
0000
0000
0000
0000
0000
0000
0400
0E00
0400
0000
0000
0000
0000
0000
0000
ENDCHAR
STARTCHAR cedilla
ENCODING 184
SWIDTH 1 0
DWIDTH 9 0
BBX 9 15 0 -3
BITMAP
0000
0000
0000
0000
0000
0000
0000
0000
0000
0000
0000
0000
0600
3600
1C00
ENDCHAR
STARTCHAR onesuperior
ENCODING 185
SWIDTH 1 0
DWIDTH 9 0
BBX 9 15 0 -3
BITMAP
0000
3000
7000
3000
3000
3000
3000
7800
0000
0000
0000
0000
0000
0000
0000
ENDCHAR
STARTCHAR ordmasculine
ENCODING 186
SWIDTH 1 0
DWIDTH 9 0
BBX 9 15 0 -3
BITMAP
0000
1C00
3600
3600
1C00
0000
3E00
0000
0000
0000
0000
0000
0000
0000
0000
ENDCHAR
STARTCHAR guillemotright
ENCODING 187
SWIDTH 1 0
DWIDTH 9 0
BBX 9 15 0 -3
BITMAP
0000
0000
0000
6C00
3600
1B00
0D80
0D80
1B00
3600
6C00
0000
0000
0000
0000
ENDCHAR
STARTCHAR onequarter
ENCODING 188
SWIDTH 1 0
DWIDTH 9 0
BBX 9 15 0 -3
BITMAP
0000
3000
7000
3000
3000
3080
3180
7B80
0780
0D80
0F80
0180
0000
0000
0000
ENDCHAR
STARTCHAR onehalf
ENCODING 189
SWIDTH 1 0
DWIDTH 9 0
BBX 9 15 0 -3
BITMAP
0000
3000
7000
3000
3000
3700
3980
7980
0300
0600
0C00
0F80
0000
0000
0000
ENDCHAR
STARTCHAR threequarters
ENCODING 190
SWIDTH 1 0
DWIDTH 9 0
BBX 9 15 0 -3
BITMAP
0000
3800
4C00
0C00
1800
0C80
4D80
3B80
0780
0D80
0F80
0180
0000
0000
0000
ENDCHAR
STARTCHAR questiondown
ENCODING 191
SWIDTH 1 0
DWIDTH 9 0
BBX 9 15 0 -3
BITMAP
0000
0000
0600
0600
0000
0600
0C00
1800
3000
3180
3180
1F00
0000
0000
0000
ENDCHAR
STARTCHAR Agrave
ENCODING 192
SWIDTH 714 0
DWIDTH 9 0
BBX 9 15 0 -3
BITMAP
3000
1800
0c00
0000
1e00
3300
6180
6180
7f80
6180
6180
6180
0000
0000
0000
ENDCHAR
STARTCHAR Aacute
ENCODING 193
SWIDTH 714 0
DWIDTH 9 0
BBX 9 15 0 -3
BITMAP
0300
0600
0c00
0000
1e00
3300
6180
6180
7f80
6180
6180
6180
0000
0000
0000
ENDCHAR
STARTCHAR Acircumflex
ENCODING 194
SWIDTH 714 0
DWIDTH 9 0
BBX 9 15 0 -3
BITMAP
0c00
1e00
3300
0000
1e00
3300
6180
6180
7f80
6180
6180
6180
0000
0000
0000
ENDCHAR
STARTCHAR Atilde
ENCODING 195
SWIDTH 714 0
DWIDTH 9 0
BBX 9 15 0 -3
BITMAP
1900
3f00
2600
0000
1e00
3300
6180
6180
7f80
6180
6180
6180
0000
0000
0000
ENDCHAR
STARTCHAR Adieresis
ENCODING 196
SWIDTH 714 0
DWIDTH 9 0
BBX 9 15 0 -3
BITMAP
0000
3300
3300
0000
1e00
3300
6180
6180
7f80
6180
6180
6180
0000
0000
0000
ENDCHAR
STARTCHAR Aring
ENCODING 197
SWIDTH 714 0
DWIDTH 9 0
BBX 9 15 0 -3
BITMAP
0c00
1200
1200
0c00
1e00
3300
6180
6180
7f80
6180
6180
6180
0000
0000
0000
ENDCHAR
STARTCHAR AE
ENCODING 198
SWIDTH 714 0
DWIDTH 9 0
BBX 9 15 0 -3
BITMAP
0000
0000
0f80
1e00
3600
3600
6600
7f80
6600
6600
6600
6780
0000
0000
0000
ENDCHAR
STARTCHAR Ccedilla
ENCODING 199
SWIDTH 714 0
DWIDTH 9 0
BBX 9 15 0 -3
BITMAP
0000
0000
1f00
3180
6080
6000
6000
6000
6000
6080
3180
1f00
0600
3600
1c00
ENDCHAR
STARTCHAR Egrave
ENCODING 200
SWIDTH 714 0
DWIDTH 9 0
BBX 9 15 0 -3
BITMAP
3000
1800
0c00
0000
7f00
6000
6000
7e00
6000
6000
6000
7f00
0000
0000
0000
ENDCHAR
STARTCHAR Eacute
ENCODING 201
SWIDTH 714 0
DWIDTH 9 0
BBX 9 15 0 -3
BITMAP
0600
0c00
1800
0000
7f00
6000
6000
7e00
6000
6000
6000
7f00
0000
0000
0000
ENDCHAR
STARTCHAR Ecircumflex
ENCODING 202
SWIDTH 714 0
DWIDTH 9 0
BBX 9 15 0 -3
BITMAP
0c00
1e00
3300
0000
7f00
6000
6000
7e00
6000
6000
6000
7f00
0000
0000
0000
ENDCHAR
STARTCHAR Edieresis
ENCODING 203
SWIDTH 714 0
DWIDTH 9 0
BBX 9 15 0 -3
BITMAP
0000
3300
3300
0000
7f00
6000
6000
7e00
6000
6000
6000
7f00
0000
0000
0000
ENDCHAR
STARTCHAR Igrave
ENCODING 204
SWIDTH 714 0
DWIDTH 9 0
BBX 9 15 0 -3
BITMAP
3000
1800
0c00
0000
3f00
0c00
0c00
0c00
0c00
0c00
0c00
3f00
0000
0000
0000
ENDCHAR
STARTCHAR Iacute
ENCODING 205
SWIDTH 714 0
DWIDTH 9 0
BBX 9 15 0 -3
BITMAP
0600
0c00
1800
0000
3f00
0c00
0c00
0c00
0c00
0c00
0c00
3f00
0000
0000
0000
ENDCHAR
STARTCHAR Icircumflex
ENCODING 206
SWIDTH 714 0
DWIDTH 9 0
BBX 9 15 0 -3
BITMAP
0c00
1e00
3300
0000
3f00
0c00
0c00
0c00
0c00
0c00
0c00
3f00
0000
0000
0000
ENDCHAR
STARTCHAR Idieresis
ENCODING 207
SWIDTH 714 0
DWIDTH 9 0
BBX 9 15 0 -3
BITMAP
0000
3300
3300
0000
3f00
0c00
0c00
0c00
0c00
0c00
0c00
3f00
0000
0000
0000
ENDCHAR
STARTCHAR Eth
ENCODING 208
SWIDTH 714 0
DWIDTH 9 0
BBX 9 15 0 -3
BITMAP
0000
0000
7e00
6300
6180
6180
f980
f980
6180
6180
6300
7e00
0000
0000
0000
ENDCHAR
STARTCHAR Ntilde
ENCODING 209
SWIDTH 714 0
DWIDTH 9 0
BBX 9 15 0 -3
BITMAP
1900
3f00
2600
0000
6180
7180
7980
7d80
6f80
6780
6380
6180
0000
0000
0000
ENDCHAR
STARTCHAR Ograve
ENCODING 210
SWIDTH 714 0
DWIDTH 9 0
BBX 9 15 0 -3
BITMAP
3000
1800
0c00
0000
1e00
3300
6180
6180
6180
6180
3300
1e00
0000
0000
0000
ENDCHAR
STARTCHAR Oacute
ENCODING 211
SWIDTH 714 0
DWIDTH 9 0
BBX 9 15 0 -3
BITMAP
0300
0600
0c00
0000
1e00
3300
6180
6180
6180
6180
3300
1e00
0000
0000
0000
ENDCHAR
STARTCHAR Ocircumflex
ENCODING 212
SWIDTH 714 0
DWIDTH 9 0
BBX 9 15 0 -3
BITMAP
0c00
1e00
3300
0000
1e00
3300
6180
6180
6180
6180
3300
1e00
0000
0000
0000
ENDCHAR
STARTCHAR Otilde
ENCODING 213
SWIDTH 714 0
DWIDTH 9 0
BBX 9 15 0 -3
BITMAP
1900
3f00
2600
0000
1e00
3300
6180
6180
6180
6180
3300
1e00
0000
0000
0000
ENDCHAR
STARTCHAR Odieresis
ENCODING 214
SWIDTH 714 0
DWIDTH 9 0
BBX 9 15 0 -3
BITMAP
0000
3300
3300
0000
1e00
3300
6180
6180
6180
6180
3300
1e00
0000
0000
0000
ENDCHAR
STARTCHAR multiply
ENCODING 215
SWIDTH 714 0
DWIDTH 9 0
BBX 9 15 0 -3
BITMAP
0000
0000
0000
0000
4100
6300
3600
1c00
1c00
3600
6300
4100
0000
0000
0000
ENDCHAR
STARTCHAR Oslash
ENCODING 216
SWIDTH 714 0
DWIDTH 9 0
BBX 9 15 0 -3
BITMAP
0000
0080
1f80
3300
6380
6580
6580
6980
6980
7180
3300
7e00
4000
0000
0000
ENDCHAR
STARTCHAR Ugrave
ENCODING 217
SWIDTH 714 0
DWIDTH 9 0
BBX 9 15 0 -3
BITMAP
3000
1800
0c00
0000
6180
6180
6180
6180
6180
6180
3300
1e00
0000
0000
0000
ENDCHAR
STARTCHAR Uacute
ENCODING 218
SWIDTH 714 0
DWIDTH 9 0
BBX 9 15 0 -3
BITMAP
0300
0600
0c00
0000
6180
6180
6180
6180
6180
6180
3300
1e00
0000
0000
0000
ENDCHAR
STARTCHAR Ucircumflex
ENCODING 219
SWIDTH 714 0
DWIDTH 9 0
BBX 9 15 0 -3
BITMAP
0c00
1e00
3300
0000
6180
6180
6180
6180
6180
6180
3300
1e00
0000
0000
0000
ENDCHAR
STARTCHAR Udieresis
ENCODING 220
SWIDTH 714 0
DWIDTH 9 0
BBX 9 15 0 -3
BITMAP
0000
3300
3300
0000
6180
6180
6180
6180
6180
6180
3300
1e00
0000
0000
0000
ENDCHAR
STARTCHAR Yacute
ENCODING 221
SWIDTH 714 0
DWIDTH 9 0
BBX 9 15 0 -3
BITMAP
0300
0600
0c00
0000
6180
3300
1e00
0c00
0c00
0c00
0c00
0c00
0000
0000
0000
ENDCHAR
STARTCHAR Thorn
ENCODING 222
SWIDTH 714 0
DWIDTH 9 0
BBX 9 15 0 -3
BITMAP
0000
0000
3c00
1800
1f00
1980
1980
1980
1f00
1800
1800
3c00
0000
0000
0000
ENDCHAR
STARTCHAR germandbls
ENCODING 223
SWIDTH 714 0
DWIDTH 9 0
BBX 9 15 0 -3
BITMAP
0000
0000
1e00
3300
6300
6600
6c00
6600
6300
6300
6300
6e00
0000
0000
0000
ENDCHAR
STARTCHAR agrave
ENCODING 224
SWIDTH 714 0
DWIDTH 9 0
BBX 9 15 0 -3
BITMAP
0000
3000
1800
0c00
0000
1f00
2180
0180
3f80
6180
6380
3d80
0000
0000
0000
ENDCHAR
STARTCHAR aacute
ENCODING 225
SWIDTH 714 0
DWIDTH 9 0
BBX 9 15 0 -3
BITMAP
0000
0600
0c00
1800
0000
1f00
2180
0180
3f80
6180
6380
3d80
0000
0000
0000
ENDCHAR
STARTCHAR acircumflex
ENCODING 226
SWIDTH 714 0
DWIDTH 9 0
BBX 9 15 0 -3
BITMAP
0000
0c00
1e00
3300
0000
1f00
2180
0180
3f80
6180
6380
3d80
0000
0000
0000
ENDCHAR
STARTCHAR atilde
ENCODING 227
SWIDTH 714 0
DWIDTH 9 0
BBX 9 15 0 -3
BITMAP
0000
1900
3f00
2600
0000
1f00
2180
0180
3f80
6180
6380
3d80
0000
0000
0000
ENDCHAR
STARTCHAR adieresis
ENCODING 228
SWIDTH 714 0
DWIDTH 9 0
BBX 9 15 0 -3
BITMAP
0000
3300
3300
0000
0000
1f00
2180
0180
3f80
6180
6380
3d80
0000
0000
0000
ENDCHAR
STARTCHAR aring
ENCODING 229
SWIDTH 714 0
DWIDTH 9 0
BBX 9 15 0 -3
BITMAP
0000
0c00
1200
1200
0c00
1f00
2180
0180
3f80
6180
6380
3d80
0000
0000
0000
ENDCHAR
STARTCHAR ae
ENCODING 230
SWIDTH 714 0
DWIDTH 9 0
BBX 9 15 0 -3
BITMAP
0000
0000
0000
0000
0000
3b00
4d80
0d80
3f00
6c00
6c80
3700
0000
0000
0000
ENDCHAR
STARTCHAR ccedilla
ENCODING 231
SWIDTH 714 0
DWIDTH 9 0
BBX 9 15 0 -3
BITMAP
0000
0000
0000
0000
0000
1f00
3180
6000
6000
6000
3180
1f00
0600
3600
1c00
ENDCHAR
STARTCHAR egrave
ENCODING 232
SWIDTH 714 0
DWIDTH 9 0
BBX 9 15 0 -3
BITMAP
0000
3000
1800
0c00
0000
1e00
3300
6180
7f80
6000
3180
1f00
0000
0000
0000
ENDCHAR
STARTCHAR eacute
ENCODING 233
SWIDTH 714 0
DWIDTH 9 0
BBX 9 15 0 -3
BITMAP
0000
0600
0c00
1800
0000
1e00
3300
6180
7f80
6000
3180
1f00
0000
0000
0000
ENDCHAR
STARTCHAR ecircumflex
ENCODING 234
SWIDTH 714 0
DWIDTH 9 0
BBX 9 15 0 -3
BITMAP
0000
0c00
1e00
3300
0000
1e00
3300
6180
7f80
6000
3180
1f00
0000
0000
0000
ENDCHAR
STARTCHAR edieresis
ENCODING 235
SWIDTH 714 0
DWIDTH 9 0
BBX 9 15 0 -3
BITMAP
0000
3300
3300
0000
0000
1e00
3300
6180
7f80
6000
3180
1f00
0000
0000
0000
ENDCHAR
STARTCHAR igrave
ENCODING 236
SWIDTH 714 0
DWIDTH 9 0
BBX 9 15 0 -3
BITMAP
0000
3000
1800
0c00
0000
1c00
0c00
0c00
0c00
0c00
0c00
3f00
0000
0000
0000
ENDCHAR
STARTCHAR iacute
ENCODING 237
SWIDTH 714 0
DWIDTH 9 0
BBX 9 15 0 -3
BITMAP
0000
0600
0c00
1800
0000
1c00
0c00
0c00
0c00
0c00
0c00
3f00
0000
0000
0000
ENDCHAR
STARTCHAR icircumflex
ENCODING 238
SWIDTH 714 0
DWIDTH 9 0
BBX 9 15 0 -3
BITMAP
0000
0c00
1e00
3300
0000
1c00
0c00
0c00
0c00
0c00
0c00
3f00
0000
0000
0000
ENDCHAR
STARTCHAR idieresis
ENCODING 239
SWIDTH 714 0
DWIDTH 9 0
BBX 9 15 0 -3
BITMAP
0000
3300
3300
0000
0000
1c00
0c00
0c00
0c00
0c00
0c00
3f00
0000
0000
0000
ENDCHAR
STARTCHAR eth
ENCODING 240
SWIDTH 714 0
DWIDTH 9 0
BBX 9 15 0 -3
BITMAP
4400
6c00
3800
3800
6c00
4600
1f00
3380
6180
6180
3300
1e00
0000
0000
0000
ENDCHAR
STARTCHAR ntilde
ENCODING 241
SWIDTH 714 0
DWIDTH 9 0
BBX 9 15 0 -3
BITMAP
0000
1900
3f00
2600
0000
6e00
7300
6180
6180
6180
6180
6180
0000
0000
0000
ENDCHAR
STARTCHAR ograve
ENCODING 242
SWIDTH 714 0
DWIDTH 9 0
BBX 9 15 0 -3
BITMAP
0000
3000
1800
0c00
0000
1e00
3300
6180
6180
6180
3300
1e00
0000
0000
0000
ENDCHAR
STARTCHAR oacute
ENCODING 243
SWIDTH 714 0
DWIDTH 9 0
BBX 9 15 0 -3
BITMAP
0000
0600
0c00
1800
0000
1e00
3300
6180
6180
6180
3300
1e00
0000
0000
0000
ENDCHAR
STARTCHAR ocircumflex
ENCODING 244
SWIDTH 714 0
DWIDTH 9 0
BBX 9 15 0 -3
BITMAP
0000
0c00
1e00
3300
0000
1e00
3300
6180
6180
6180
3300
1e00
0000
0000
0000
ENDCHAR
STARTCHAR otilde
ENCODING 245
SWIDTH 714 0
DWIDTH 9 0
BBX 9 15 0 -3
BITMAP
0000
1900
3f00
2600
0000
1e00
3300
6180
6180
6180
3300
1e00
0000
0000
0000
ENDCHAR
STARTCHAR odieresis
ENCODING 246
SWIDTH 714 0
DWIDTH 9 0
BBX 9 15 0 -3
BITMAP
0000
3300
3300
0000
0000
1e00
3300
6180
6180
6180
3300
1e00
0000
0000
0000
ENDCHAR
STARTCHAR divide
ENCODING 247
SWIDTH 714 0
DWIDTH 9 0
BBX 9 15 0 -3
BITMAP
0000
0000
0c00
0c00
0000
0000
7f80
7f80
0000
0000
0c00
0c00
0000
0000
0000
ENDCHAR
STARTCHAR oslash
ENCODING 248
SWIDTH 714 0
DWIDTH 9 0
BBX 9 15 0 -3
BITMAP
0000
0000
0000
0000
0080
1f80
3300
6780
6d80
7980
3300
7e00
4000
0000
0000
ENDCHAR
STARTCHAR ugrave
ENCODING 249
SWIDTH 714 0
DWIDTH 9 0
BBX 9 15 0 -3
BITMAP
0000
3000
1800
0c00
0000
6180
6180
6180
6180
6180
3380
1d80
0000
0000
0000
ENDCHAR
STARTCHAR uacute
ENCODING 250
SWIDTH 714 0
DWIDTH 9 0
BBX 9 15 0 -3
BITMAP
0000
0600
0c00
1800
0000
6180
6180
6180
6180
6180
3380
1d80
0000
0000
0000
ENDCHAR
STARTCHAR ucircumflex
ENCODING 251
SWIDTH 714 0
DWIDTH 9 0
BBX 9 15 0 -3
BITMAP
0000
0c00
1e00
3300
0000
6180
6180
6180
6180
6180
3380
1d80
0000
0000
0000
ENDCHAR
STARTCHAR udieresis
ENCODING 252
SWIDTH 714 0
DWIDTH 9 0
BBX 9 15 0 -3
BITMAP
0000
3300
3300
0000
0000
6180
6180
6180
6180
6180
3380
1d80
0000
0000
0000
ENDCHAR
STARTCHAR yacute
ENCODING 253
SWIDTH 714 0
DWIDTH 9 0
BBX 9 15 0 -3
BITMAP
0000
0600
0c00
1800
0000
6180
6180
6180
6180
6180
3380
1d80
0180
6300
3e00
ENDCHAR
STARTCHAR thorn
ENCODING 254
SWIDTH 714 0
DWIDTH 9 0
BBX 9 15 0 -3
BITMAP
0000
0000
0000
0000
0000
3800
1e00
1b00
1e00
1800
1800
3800
0000
0000
0000
ENDCHAR
STARTCHAR ydieresis
ENCODING 255
SWIDTH 714 0
DWIDTH 9 0
BBX 9 15 0 -3
BITMAP
0000
3300
3300
0000
0000
6180
6180
6180
6180
6180
3380
1d80
0180
6300
3e00
ENDCHAR
STARTCHAR uni0400
ENCODING 1024
SWIDTH 714 0
DWIDTH 9 0
BBX 9 15 0 -3
BITMAP
3000
1800
0c00
0000
7f00
6000
6000
7e00
6000
6000
6000
7f00
0000
0000
0000
ENDCHAR
STARTCHAR afii10023
ENCODING 1025
SWIDTH 714 0
DWIDTH 9 0
BBX 9 15 0 -3
BITMAP
0000
3300
3300
0000
7f00
6000
6000
7e00
6000
6000
6000
7f00
0000
0000
0000
ENDCHAR
STARTCHAR afii10051
ENCODING 1026
SWIDTH 1 0
DWIDTH 9 0
BBX 9 15 0 -3
BITMAP
0000
0000
FC00
6000
6000
6000
7E00
6300
6180
6180
6180
6700
0000
0000
0000
ENDCHAR
STARTCHAR afii10052
ENCODING 1027
SWIDTH 1 0
DWIDTH 9 0
BBX 9 15 0 -3
BITMAP
0600
0C00
1800
0000
7F00
6000
6000
6000
6000
6000
6000
6000
0000
0000
0000
ENDCHAR
STARTCHAR afii10053
ENCODING 1028
SWIDTH 1 0
DWIDTH 9 0
BBX 9 15 0 -3
BITMAP
0000
0000
1F00
3180
6080
6000
7C00
6000
6000
6080
3180
1F00
0000
0000
0000
ENDCHAR
STARTCHAR afii10054
ENCODING 1029
SWIDTH 1 0
DWIDTH 9 0
BBX 9 15 0 -3
BITMAP
0000
0000
3F00
6180
6000
6000
3F00
0180
0180
0180
6180
3F00
0000
0000
0000
ENDCHAR
STARTCHAR afii10055
ENCODING 1030
SWIDTH 1 0
DWIDTH 9 0
BBX 9 15 0 -3
BITMAP
0000
0000
3F00
0C00
0C00
0C00
0C00
0C00
0C00
0C00
0C00
3F00
0000
0000
0000
ENDCHAR
STARTCHAR afii10056
ENCODING 1031
SWIDTH 714 0
DWIDTH 9 0
BBX 9 15 0 -3
BITMAP
0000
3300
3300
0000
3f00
0c00
0c00
0c00
0c00
0c00
0c00
3f00
0000
0000
0000
ENDCHAR
STARTCHAR afii10057
ENCODING 1032
SWIDTH 1 0
DWIDTH 9 0
BBX 9 15 0 -3
BITMAP
0000
0000
0F00
0300
0300
0300
0300
0300
0300
2300
3600
1C00
0000
0000
0000
ENDCHAR
STARTCHAR afii10058
ENCODING 1033
SWIDTH 1 0
DWIDTH 9 0
BBX 9 15 0 -3
BITMAP
0000
0000
1C00
3C00
6C00
6C00
6F00
6D80
6D80
6D80
6D80
CF00
0000
0000
0000
ENDCHAR
STARTCHAR afii10059
ENCODING 1034
SWIDTH 1 0
DWIDTH 9 0
BBX 9 15 0 -3
BITMAP
0000
0000
6C00
6C00
6C00
6C00
7F00
6D80
6D80
6D80
6D80
6F00
0000
0000
0000
ENDCHAR
STARTCHAR afii10060
ENCODING 1035
SWIDTH 1 0
DWIDTH 9 0
BBX 9 15 0 -3
BITMAP
0000
0000
FC00
6000
6000
6000
7E00
6300
6180
6180
6180
6180
0000
0000
0000
ENDCHAR
STARTCHAR afii10061
ENCODING 1036
SWIDTH 1 0
DWIDTH 9 0
BBX 9 15 0 -3
BITMAP
0600
0C00
1800
0000
6180
6300
6600
7C00
7C00
6600
6300
6180
0000
0000
0000
ENDCHAR
STARTCHAR afii10062
ENCODING 1038
SWIDTH 1 0
DWIDTH 9 0
BBX 9 15 0 -3
BITMAP
1E00
0000
6180
6180
6180
6180
3180
1F80
0180
0180
6300
3E00
0000
0000
0000
ENDCHAR
STARTCHAR afii10145
ENCODING 1039
SWIDTH 1 0
DWIDTH 9 0
BBX 9 15 0 -3
BITMAP
0000
0000
6180
6180
6180
6180
6180
6180
6180
6180
6180
7F80
0C00
0C00
0000
ENDCHAR
STARTCHAR afii10017
ENCODING 1040
SWIDTH 1 0
DWIDTH 9 0
BBX 9 15 0 -3
BITMAP
0000
0000
0C00
1E00
3300
6180
6180
6180
7F80
6180
6180
6180
0000
0000
0000
ENDCHAR
STARTCHAR afii10018
ENCODING 1041
SWIDTH 1 0
DWIDTH 9 0
BBX 9 15 0 -3
BITMAP
0000
0000
7F80
6000
6000
6000
7E00
6300
6180
6180
6300
7E00
0000
0000
0000
ENDCHAR
STARTCHAR afii10019
ENCODING 1042
SWIDTH 1 0
DWIDTH 9 0
BBX 9 15 0 -3
BITMAP
0000
0000
7E00
6300
6180
6300
7E00
6300
6180
6180
6300
7E00
0000
0000
0000
ENDCHAR
STARTCHAR afii10020
ENCODING 1043
SWIDTH 1 0
DWIDTH 9 0
BBX 9 15 0 -3
BITMAP
0000
0000
7F00
6000
6000
6000
6000
6000
6000
6000
6000
6000
0000
0000
0000
ENDCHAR
STARTCHAR afii10021
ENCODING 1044
SWIDTH 1 0
DWIDTH 9 0
BBX 9 15 0 -3
BITMAP
0000
0000
1F00
3300
3300
3300
3300
3300
3300
3300
3300
7F80
6180
6180
0000
ENDCHAR
STARTCHAR afii10022
ENCODING 1045
SWIDTH 1 0
DWIDTH 9 0
BBX 9 15 0 -3
BITMAP
0000
0000
7F00
6000
6000
6000
7E00
6000
6000
6000
6000
7F00
0000
0000
0000
ENDCHAR
STARTCHAR afii10024
ENCODING 1046
SWIDTH 1 0
DWIDTH 9 0
BBX 9 15 0 -3
BITMAP
0000
0000
6D80
6D80
6D80
3F00
1E00
3F00
3F00
6D80
6D80
6D80
0000
0000
0000
ENDCHAR
STARTCHAR afii10025
ENCODING 1047
SWIDTH 1 0
DWIDTH 9 0
BBX 9 15 0 -3
BITMAP
0000
0000
3E00
6300
4180
0300
1E00
0300
0180
4180
6300
3E00
0000
0000
0000
ENDCHAR
STARTCHAR afii10026
ENCODING 1048
SWIDTH 1 0
DWIDTH 9 0
BBX 9 15 0 -3
BITMAP
0000
0000
6180
6380
6380
6780
6D80
6D80
7980
7980
7180
6180
0000
0000
0000
ENDCHAR
STARTCHAR afii10027
ENCODING 1049
SWIDTH 1 0
DWIDTH 9 0
BBX 9 15 0 -3
BITMAP
1E00
0000
6180
6380
6380
6780
6D80
6D80
7980
7980
7180
6180
0000
0000
0000
ENDCHAR
STARTCHAR afii10028
ENCODING 1050
SWIDTH 1 0
DWIDTH 9 0
BBX 9 15 0 -3
BITMAP
0000
0000
6180
6300
6600
6C00
7800
7800
6C00
6600
6300
6180
0000
0000
0000
ENDCHAR
STARTCHAR afii10029
ENCODING 1051
SWIDTH 1 0
DWIDTH 9 0
BBX 9 15 0 -3
BITMAP
0000
0000
0F80
1980
3180
3180
3180
3180
3180
3180
3180
6180
0000
0000
0000
ENDCHAR
STARTCHAR afii10030
ENCODING 1052
SWIDTH 1 0
DWIDTH 9 0
BBX 9 15 0 -3
BITMAP
0000
0000
6180
7380
7F80
6D80
6D80
6D80
6180
6180
6180
6180
0000
0000
0000
ENDCHAR
STARTCHAR afii10031
ENCODING 1053
SWIDTH 1 0
DWIDTH 9 0
BBX 9 15 0 -3
BITMAP
0000
0000
6180
6180
6180
6180
7F80
6180
6180
6180
6180
6180
0000
0000
0000
ENDCHAR
STARTCHAR afii10032
ENCODING 1054
SWIDTH 1 0
DWIDTH 9 0
BBX 9 15 0 -3
BITMAP
0000
0000
1E00
3300
6180
6180
6180
6180
6180
6180
3300
1E00
0000
0000
0000
ENDCHAR
STARTCHAR afii10033
ENCODING 1055
SWIDTH 1 0
DWIDTH 9 0
BBX 9 15 0 -3
BITMAP
0000
0000
7F80
6180
6180
6180
6180
6180
6180
6180
6180
6180
0000
0000
0000
ENDCHAR
STARTCHAR afii10034
ENCODING 1056
SWIDTH 1 0
DWIDTH 9 0
BBX 9 15 0 -3
BITMAP
0000
0000
7F00
6180
6180
6180
7F00
6000
6000
6000
6000
6000
0000
0000
0000
ENDCHAR
STARTCHAR afii10035
ENCODING 1057
SWIDTH 1 0
DWIDTH 9 0
BBX 9 15 0 -3
BITMAP
0000
0000
1F00
3180
6080
6000
6000
6000
6000
6080
3180
1F00
0000
0000
0000
ENDCHAR
STARTCHAR afii10036
ENCODING 1058
SWIDTH 1 0
DWIDTH 9 0
BBX 9 15 0 -3
BITMAP
0000
0000
7F80
0C00
0C00
0C00
0C00
0C00
0C00
0C00
0C00
0C00
0000
0000
0000
ENDCHAR
STARTCHAR afii10037
ENCODING 1059
SWIDTH 1 0
DWIDTH 9 0
BBX 9 15 0 -3
BITMAP
0000
0000
6180
6180
6180
6180
3180
1F80
0180
0180
6300
3E00
0000
0000
0000
ENDCHAR
STARTCHAR afii10038
ENCODING 1060
SWIDTH 1 0
DWIDTH 9 0
BBX 9 15 0 -3
BITMAP
0000
0000
0C00
3F00
6D80
6D80
6D80
6D80
6D80
3F00
0C00
0C00
0000
0000
0000
ENDCHAR
STARTCHAR afii10039
ENCODING 1061
SWIDTH 1 0
DWIDTH 9 0
BBX 9 15 0 -3
BITMAP
0000
0000
6180
6180
3300
1E00
0C00
0C00
1E00
3300
6180
6180
0000
0000
0000
ENDCHAR
STARTCHAR afii10040
ENCODING 1062
SWIDTH 1 0
DWIDTH 9 0
BBX 9 15 0 -3
BITMAP
0000
0000
6300
6300
6300
6300
6300
6300
6300
6300
6300
7F80
0180
0180
0000
ENDCHAR
STARTCHAR afii10041
ENCODING 1063
SWIDTH 1 0
DWIDTH 9 0
BBX 9 15 0 -3
BITMAP
0000
0000
6180
6180
6180
6180
3180
1F80
0180
0180
0180
0180
0000
0000
0000
ENDCHAR
STARTCHAR afii10042
ENCODING 1064
SWIDTH 1 0
DWIDTH 9 0
BBX 9 15 0 -3
BITMAP
0000
0000
6180
6180
6D80
6D80
6D80
6D80
6D80
6D80
6D80
7F80
0000
0000
0000
ENDCHAR
STARTCHAR afii10043
ENCODING 1065
SWIDTH 1 0
DWIDTH 9 0
BBX 9 15 0 -3
BITMAP
0000
0000
6180
6180
6D80
6D80
6D80
6D80
6D80
6D80
6D80
7F80
0180
0180
0000
ENDCHAR
STARTCHAR afii10044
ENCODING 1066
SWIDTH 1 0
DWIDTH 9 0
BBX 9 15 0 -3
BITMAP
0000
0000
F000
3000
3000
3000
3E00
3300
3180
3180
3300
3E00
0000
0000
0000
ENDCHAR
STARTCHAR afii10045
ENCODING 1067
SWIDTH 1 0
DWIDTH 9 0
BBX 9 15 0 -3
BITMAP
0000
0000
6180
6180
6180
6180
7980
6D80
6680
6680
6D80
7980
0000
0000
0000
ENDCHAR
STARTCHAR afii10046
ENCODING 1068
SWIDTH 1 0
DWIDTH 9 0
BBX 9 15 0 -3
BITMAP
0000
0000
6000
6000
6000
6000
7E00
6300
6180
6180
6300
7E00
0000
0000
0000
ENDCHAR
STARTCHAR afii10047
ENCODING 1069
SWIDTH 1 0
DWIDTH 9 0
BBX 9 15 0 -3
BITMAP
0000
0000
3E00
6300
4180
0180
0F80
0180
0180
4180
6300
3E00
0000
0000
0000
ENDCHAR
STARTCHAR afii10048
ENCODING 1070
SWIDTH 1 0
DWIDTH 9 0
BBX 9 15 0 -3
BITMAP
0000
0000
6700
6D80
6D80
6D80
7D80
6D80
6D80
6D80
6D80
6700
0000
0000
0000
ENDCHAR
STARTCHAR afii10049
ENCODING 1071
SWIDTH 1 0
DWIDTH 9 0
BBX 9 15 0 -3
BITMAP
0000
0000
3F80
6180
6180
6180
3F80
0F80
1980
3180
6180
6180
0000
0000
0000
ENDCHAR
STARTCHAR afii10065
ENCODING 1072
SWIDTH 1 0
DWIDTH 9 0
BBX 9 15 0 -3
BITMAP
0000
0000
0000
0000
0000
1F00
3180
0180
3F80
6180
6380
3D80
0000
0000
0000
ENDCHAR
STARTCHAR afii10066
ENCODING 1073
SWIDTH 1 0
DWIDTH 9 0
BBX 9 15 0 -3
BITMAP
0000
0000
0180
1F00
3000
6E00
7300
6180
6180
6180
3300
1E00
0000
0000
0000
ENDCHAR
STARTCHAR afii10067
ENCODING 1074
SWIDTH 1 0
DWIDTH 9 0
BBX 9 15 0 -3
BITMAP
0000
0000
0000
0000
0000
7F00
6180
6180
7F00
6180
6180
7F00
0000
0000
0000
ENDCHAR
STARTCHAR afii10068
ENCODING 1075
SWIDTH 1 0
DWIDTH 9 0
BBX 9 15 0 -3
BITMAP
0000
0000
0000
0000
0000
3F80
3000
3000
3000
3000
3000
3000
0000
0000
0000
ENDCHAR
STARTCHAR afii10069
ENCODING 1076
SWIDTH 1 0
DWIDTH 9 0
BBX 9 15 0 -3
BITMAP
0000
0000
0000
0000
0000
1F00
3300
3300
3300
3300
3300
7F80
6180
6180
0000
ENDCHAR
STARTCHAR afii10070
ENCODING 1077
SWIDTH 1 0
DWIDTH 9 0
BBX 9 15 0 -3
BITMAP
0000
0000
0000
0000
0000
1E00
3300
6180
7F80
6000
3180
1F00
0000
0000
0000
ENDCHAR
STARTCHAR afii10072
ENCODING 1078
SWIDTH 1 0
DWIDTH 9 0
BBX 9 15 0 -3
BITMAP
0000
0000
0000
0000
0000
6D80
6D80
3F00
1E00
3F00
6D80
6D80
0000
0000
0000
ENDCHAR
STARTCHAR afii10073
ENCODING 1079
SWIDTH 1 0
DWIDTH 9 0
BBX 9 15 0 -3
BITMAP
0000
0000
0000
0000
0000
3F00
6180
0180
1F00
0180
6180
3F00
0000
0000
0000
ENDCHAR
STARTCHAR afii10074
ENCODING 1080
SWIDTH 1 0
DWIDTH 9 0
BBX 9 15 0 -3
BITMAP
0000
0000
0000
0000
0000
6180
6380
6780
6D80
7980
7180
6180
0000
0000
0000
ENDCHAR
STARTCHAR afii10075
ENCODING 1081
SWIDTH 1 0
DWIDTH 9 0
BBX 9 15 0 -3
BITMAP
0000
0000
0000
1E00
0000
6180
6380
6780
6D80
7980
7180
6180
0000
0000
0000
ENDCHAR
STARTCHAR afii10076
ENCODING 1082
SWIDTH 1 0
DWIDTH 9 0
BBX 9 15 0 -3
BITMAP
0000
0000
0000
0000
0000
3300
3600
3C00
3C00
3600
3300
3180
0000
0000
0000
ENDCHAR
STARTCHAR afii10077
ENCODING 1083
SWIDTH 1 0
DWIDTH 9 0
BBX 9 15 0 -3
BITMAP
0000
0000
0000
0000
0000
0F80
1980
3180
3180
3180
3180
6180
0000
0000
0000
ENDCHAR
STARTCHAR afii10078
ENCODING 1084
SWIDTH 1 0
DWIDTH 9 0
BBX 9 15 0 -3
BITMAP
0000
0000
0000
0000
0000
6180
7380
7F80
6D80
6D80
6180
6180
0000
0000
0000
ENDCHAR
STARTCHAR afii10079
ENCODING 1085
SWIDTH 1 0
DWIDTH 9 0
BBX 9 15 0 -3
BITMAP
0000
0000
0000
0000
0000
6180
6180
6180
7F80
6180
6180
6180
0000
0000
0000
ENDCHAR
STARTCHAR afii10080
ENCODING 1086
SWIDTH 1 0
DWIDTH 9 0
BBX 9 15 0 -3
BITMAP
0000
0000
0000
0000
0000
1E00
3300
6180
6180
6180
3300
1E00
0000
0000
0000
ENDCHAR
STARTCHAR afii10081
ENCODING 1087
SWIDTH 1 0
DWIDTH 9 0
BBX 9 15 0 -3
BITMAP
0000
0000
0000
0000
0000
7F80
6180
6180
6180
6180
6180
6180
0000
0000
0000
ENDCHAR
STARTCHAR afii10082
ENCODING 1088
SWIDTH 1 0
DWIDTH 9 0
BBX 9 15 0 -3
BITMAP
0000
0000
0000
0000
0000
6E00
7300
6180
6180
6180
7300
6E00
6000
6000
6000
ENDCHAR
STARTCHAR afii10083
ENCODING 1089
SWIDTH 1 0
DWIDTH 9 0
BBX 9 15 0 -3
BITMAP
0000
0000
0000
0000
0000
1F00
3180
6000
6000
6000
3180
1F00
0000
0000
0000
ENDCHAR
STARTCHAR afii10084
ENCODING 1090
SWIDTH 1 0
DWIDTH 9 0
BBX 9 15 0 -3
BITMAP
0000
0000
0000
0000
0000
7F80
0C00
0C00
0C00
0C00
0C00
0C00
0000
0000
0000
ENDCHAR
STARTCHAR afii10085
ENCODING 1091
SWIDTH 1 0
DWIDTH 9 0
BBX 9 15 0 -3
BITMAP
0000
0000
0000
0000
0000
6180
6180
6180
6180
6180
3380
1D80
0180
6300
3E00
ENDCHAR
STARTCHAR afii10086
ENCODING 1092
SWIDTH 1 0
DWIDTH 9 0
BBX 9 15 0 -3
BITMAP
0000
0000
0000
0000
0C00
3F00
6D80
6D80
6D80
6D80
6D80
3F00
0C00
0C00
0C00
ENDCHAR
STARTCHAR afii10087
ENCODING 1093
SWIDTH 1 0
DWIDTH 9 0
BBX 9 15 0 -3
BITMAP
0000
0000
0000
0000
0000
6180
3300
1E00
0C00
1E00
3300
6180
0000
0000
0000
ENDCHAR
STARTCHAR afii10088
ENCODING 1094
SWIDTH 1 0
DWIDTH 9 0
BBX 9 15 0 -3
BITMAP
0000
0000
0000
0000
0000
6300
6300
6300
6300
6300
6300
7F80
0180
0180
0000
ENDCHAR
STARTCHAR afii10089
ENCODING 1095
SWIDTH 1 0
DWIDTH 9 0
BBX 9 15 0 -3
BITMAP
0000
0000
0000
0000
0000
6180
6180
6180
3380
1D80
0180
0180
0000
0000
0000
ENDCHAR
STARTCHAR afii10090
ENCODING 1096
SWIDTH 1 0
DWIDTH 9 0
BBX 9 15 0 -3
BITMAP
0000
0000
0000
0000
0000
6180
6D80
6D80
6D80
6D80
6D80
7F80
0000
0000
0000
ENDCHAR
STARTCHAR afii10091
ENCODING 1097
SWIDTH 1 0
DWIDTH 9 0
BBX 9 15 0 -3
BITMAP
0000
0000
0000
0000
0000
6180
6D80
6D80
6D80
6D80
6D80
7F80
0180
0180
0000
ENDCHAR
STARTCHAR afii10092
ENCODING 1098
SWIDTH 1 0
DWIDTH 9 0
BBX 9 15 0 -3
BITMAP
0000
0000
0000
0000
0000
7800
1800
1800
1F00
1980
1980
1F00
0000
0000
0000
ENDCHAR
STARTCHAR afii10093
ENCODING 1099
SWIDTH 1 0
DWIDTH 9 0
BBX 9 15 0 -3
BITMAP
0000
0000
0000
0000
0000
6180
6180
6180
7D80
6680
6680
7D80
0000
0000
0000
ENDCHAR
STARTCHAR afii10094
ENCODING 1100
SWIDTH 1 0
DWIDTH 9 0
BBX 9 15 0 -3
BITMAP
0000
0000
0000
0000
0000
6000
6000
6000
7F00
6180
6180
7F00
0000
0000
0000
ENDCHAR
STARTCHAR afii10095
ENCODING 1101
SWIDTH 1 0
DWIDTH 9 0
BBX 9 15 0 -3
BITMAP
0000
0000
0000
0000
0000
3E00
6300
0180
0F80
0180
6300
3E00
0000
0000
0000
ENDCHAR
STARTCHAR afii10096
ENCODING 1102
SWIDTH 1 0
DWIDTH 9 0
BBX 9 15 0 -3
BITMAP
0000
0000
0000
0000
0000
6700
6D80
6D80
7D80
6D80
6D80
6700
0000
0000
0000
ENDCHAR
STARTCHAR afii10097
ENCODING 1103
SWIDTH 1 0
DWIDTH 9 0
BBX 9 15 0 -3
BITMAP
0000
0000
0000
0000
0000
3F80
6180
6180
3F80
1980
3180
6180
0000
0000
0000
ENDCHAR
STARTCHAR uni0450
ENCODING 1104
SWIDTH 714 0
DWIDTH 9 0
BBX 9 15 0 -3
BITMAP
0000
3000
1800
0c00
0000
1e00
3300
6180
7f80
6000
3180
1f00
0000
0000
0000
ENDCHAR
STARTCHAR afii10071
ENCODING 1105
SWIDTH 714 0
DWIDTH 9 0
BBX 9 15 0 -3
BITMAP
0000
3300
3300
0000
0000
1e00
3300
6180
7f80
6000
3180
1f00
0000
0000
0000
ENDCHAR
STARTCHAR afii10099
ENCODING 1106
SWIDTH 1 0
DWIDTH 9 0
BBX 9 15 0 -3
BITMAP
0000
0000
6000
FC00
6000
6E00
7300
6180
6180
6180
6180
6180
0180
0300
0E00
ENDCHAR
STARTCHAR afii10100
ENCODING 1107
SWIDTH 1 0
DWIDTH 9 0
BBX 9 15 0 -3
BITMAP
0000
0600
0C00
1800
0000
3F80
3000
3000
3000
3000
3000
3000
0000
0000
0000
ENDCHAR
STARTCHAR afii10101
ENCODING 1108
SWIDTH 1 0
DWIDTH 9 0
BBX 9 15 0 -3
BITMAP
0000
0000
0000
0000
0000
1F00
3180
6000
7C00
6000
3180
1F00
0000
0000
0000
ENDCHAR
STARTCHAR afii10102
ENCODING 1109
SWIDTH 1 0
DWIDTH 9 0
BBX 9 15 0 -3
BITMAP
0000
0000
0000
0000
0000
3F00
6180
6000
3F00
0180
6180
3F00
0000
0000
0000
ENDCHAR
STARTCHAR afii10103
ENCODING 1110
SWIDTH 1 0
DWIDTH 9 0
BBX 9 15 0 -3
BITMAP
0000
0000
0C00
0C00
0000
1C00
0C00
0C00
0C00
0C00
0C00
3F00
0000
0000
0000
ENDCHAR
STARTCHAR afii10104
ENCODING 1111
SWIDTH 714 0
DWIDTH 9 0
BBX 9 15 0 -3
BITMAP
0000
3300
3300
0000
0000
1c00
0c00
0c00
0c00
0c00
0c00
3f00
0000
0000
0000
ENDCHAR
STARTCHAR afii10105
ENCODING 1112
SWIDTH 1 0
DWIDTH 9 0
BBX 9 15 0 -3
BITMAP
0000
0000
0300
0300
0000
0F00
0300
0300
0300
0300
0300
6300
6300
6300
3E00
ENDCHAR
STARTCHAR afii10106
ENCODING 1113
SWIDTH 1 0
DWIDTH 9 0
BBX 9 15 0 -3
BITMAP
0000
0000
0000
0000
0000
1C00
3C00
6C00
6F00
6D80
6D80
CF00
0000
0000
0000
ENDCHAR
STARTCHAR afii10107
ENCODING 1114
SWIDTH 1 0
DWIDTH 9 0
BBX 9 15 0 -3
BITMAP
0000
0000
0000
0000
0000
6C00
6C00
6C00
7F00
6D80
6D80
6F00
0000
0000
0000
ENDCHAR
STARTCHAR afii10108
ENCODING 1115
SWIDTH 1 0
DWIDTH 9 0
BBX 9 15 0 -3
BITMAP
0000
0000
6000
FC00
6000
6E00
7300
6180
6180
6180
6180
6180
0000
0000
0000
ENDCHAR
STARTCHAR afii10109
ENCODING 1116
SWIDTH 1 0
DWIDTH 9 0
BBX 9 15 0 -3
BITMAP
0000
0600
0C00
1800
0000
3300
3600
3C00
3C00
3600
3300
3180
0000
0000
0000
ENDCHAR
STARTCHAR afii10110
ENCODING 1118
SWIDTH 1 0
DWIDTH 9 0
BBX 9 15 0 -3
BITMAP
0000
0000
0000
1E00
0000
6180
6180
6180
6180
6180
3380
1D80
0180
6300
3E00
ENDCHAR
STARTCHAR afii10193
ENCODING 1119
SWIDTH 1 0
DWIDTH 9 0
BBX 9 15 0 -3
BITMAP
0000
0000
0000
0000
0000
6180
6180
6180
6180
6180
6180
7F80
0C00
0C00
0000
ENDCHAR
STARTCHAR afii10146
ENCODING 1122
SWIDTH 1 0
DWIDTH 9 0
BBX 9 15 0 -3
BITMAP
0000
0000
3000
FC00
3000
3000
3E00
3300
3180
3180
3300
3E00
0000
0000
0000
ENDCHAR
STARTCHAR afii10194
ENCODING 1123
SWIDTH 1 0
DWIDTH 9 0
BBX 9 15 0 -3
BITMAP
0000
0000
1800
1800
1800
7E00
1800
1800
1F00
1980
1980
1F00
0000
0000
0000
ENDCHAR
STARTCHAR uni0470
ENCODING 1136
SWIDTH 1 0
DWIDTH 9 0
BBX 9 15 0 -3
BITMAP
0000
0000
6D80
6D80
6D80
6D80
6D80
3F00
0C00
0C00
0C00
0C00
0000
0000
0000
ENDCHAR
STARTCHAR uni0471
ENCODING 1137
SWIDTH 1 0
DWIDTH 9 0
BBX 9 15 0 -3
BITMAP
0000
0000
0000
0000
0C00
6D80
6D80
6D80
6D80
6D80
6D80
3F00
0C00
0C00
0C00
ENDCHAR
STARTCHAR afii10147
ENCODING 1138
SWIDTH 1 0
DWIDTH 9 0
BBX 9 15 0 -3
BITMAP
0000
0000
1E00
3300
6180
6180
7F80
6180
6180
6180
3300
1E00
0000
0000
0000
ENDCHAR
STARTCHAR afii10195
ENCODING 1139
SWIDTH 1 0
DWIDTH 9 0
BBX 9 15 0 -3
BITMAP
0000
0000
0000
0000
0000
1E00
3300
6180
7F80
6180
3300
1E00
0000
0000
0000
ENDCHAR
STARTCHAR afii10148
ENCODING 1140
SWIDTH 1 0
DWIDTH 9 0
BBX 9 15 0 -3
BITMAP
0000
0000
6080
6180
6100
3300
3300
3200
1E00
1E00
0C00
0C00
0000
0000
0000
ENDCHAR
STARTCHAR afii10196
ENCODING 1141
SWIDTH 1 0
DWIDTH 9 0
BBX 9 15 0 -3
BITMAP
0000
0000
0000
0000
0000
6080
6180
3300
3200
1E00
1C00
0C00
0000
0000
0000
ENDCHAR
STARTCHAR afii10050
ENCODING 1168
SWIDTH 1 0
DWIDTH 9 0
BBX 9 15 0 -3
BITMAP
0000
0300
0300
7F00
6000
6000
6000
6000
6000
6000
6000
6000
0000
0000
0000
ENDCHAR
STARTCHAR afii10098
ENCODING 1169
SWIDTH 1 0
DWIDTH 9 0
BBX 9 15 0 -3
BITMAP
0000
0000
0000
0180
0180
3F80
3000
3000
3000
3000
3000
3000
0000
0000
0000
ENDCHAR
STARTCHAR uni04AA
ENCODING 1194
SWIDTH 714 0
DWIDTH 9 0
BBX 9 15 0 -3
BITMAP
0000
0000
1f00
3180
6080
6000
6000
6000
6000
6080
3180
1f00
0600
3600
1c00
ENDCHAR
STARTCHAR uni04AB
ENCODING 1195
SWIDTH 714 0
DWIDTH 9 0
BBX 9 15 0 -3
BITMAP
0000
0000
0000
0000
0000
1f00
3180
6000
6000
6000
3180
1f00
0600
3600
1c00
ENDCHAR
STARTCHAR uni04AE
ENCODING 1198
SWIDTH 1 0
DWIDTH 9 0
BBX 9 15 0 -3
BITMAP
0000
0000
6180
6180
3300
1E00
0C00
0C00
0C00
0C00
0C00
0C00
0000
0000
0000
ENDCHAR
STARTCHAR uni04C0
ENCODING 1216
SWIDTH 1 0
DWIDTH 9 0
BBX 9 15 0 -3
BITMAP
0000
0000
3F00
0C00
0C00
0C00
0C00
0C00
0C00
0C00
0C00
3F00
0000
0000
0000
ENDCHAR
STARTCHAR uni04D2
ENCODING 1234
SWIDTH 714 0
DWIDTH 9 0
BBX 9 15 0 -3
BITMAP
0000
3300
3300
0000
1e00
3300
6180
6180
7f80
6180
6180
6180
0000
0000
0000
ENDCHAR
STARTCHAR uni04D3
ENCODING 1235
SWIDTH 714 0
DWIDTH 9 0
BBX 9 15 0 -3
BITMAP
0000
3300
3300
0000
0000
1f00
2180
0180
3f80
6180
6380
3d80
0000
0000
0000
ENDCHAR
STARTCHAR uni04D4
ENCODING 1236
SWIDTH 714 0
DWIDTH 9 0
BBX 9 15 0 -3
BITMAP
0000
0000
0f80
1e00
3600
3600
6600
7f80
6600
6600
6600
6780
0000
0000
0000
ENDCHAR
STARTCHAR uni04D5
ENCODING 1237
SWIDTH 714 0
DWIDTH 9 0
BBX 9 15 0 -3
BITMAP
0000
0000
0000
0000
0000
3b00
4d80
0d80
3f00
6c00
6c80
3700
0000
0000
0000
ENDCHAR
STARTCHAR uni04E6
ENCODING 1254
SWIDTH 714 0
DWIDTH 9 0
BBX 9 15 0 -3
BITMAP
0000
3300
3300
0000
1e00
3300
6180
6180
6180
6180
3300
1e00
0000
0000
0000
ENDCHAR
STARTCHAR uni04E7
ENCODING 1255
SWIDTH 714 0
DWIDTH 9 0
BBX 9 15 0 -3
BITMAP
0000
3300
3300
0000
0000
1e00
3300
6180
6180
6180
3300
1e00
0000
0000
0000
ENDCHAR
STARTCHAR uni04E8
ENCODING 1256
SWIDTH 1 0
DWIDTH 9 0
BBX 9 15 0 -3
BITMAP
0000
0000
1E00
3300
6180
6180
7F80
6180
6180
6180
3300
1E00
0000
0000
0000
ENDCHAR
STARTCHAR uni04E9
ENCODING 1257
SWIDTH 1 0
DWIDTH 9 0
BBX 9 15 0 -3
BITMAP
0000
0000
0000
0000
0000
1E00
3300
6180
7F80
6180
3300
1E00
0000
0000
0000
ENDCHAR
ENDFONT
